<?xml version="1.0" encoding="UTF-8" standalone="no"?>
<!-- Creator: CorelDRAW X7 -->

<svg
   xmlns:dc="http://purl.org/dc/elements/1.1/"
   xmlns:cc="http://creativecommons.org/ns#"
   xmlns:rdf="http://www.w3.org/1999/02/22-rdf-syntax-ns#"
   xmlns:svg="http://www.w3.org/2000/svg"
   xmlns="http://www.w3.org/2000/svg"
   xmlns:sodipodi="http://sodipodi.sourceforge.net/DTD/sodipodi-0.dtd"
   xmlns:inkscape="http://www.inkscape.org/namespaces/inkscape"
   xml:space="preserve"
   width="24401px"
   height="6873px"
   version="1.1"
   style="shape-rendering:geometricPrecision; text-rendering:geometricPrecision; image-rendering:optimizeQuality; fill-rule:evenodd; clip-rule:evenodd"
   viewBox="0 0 24401 6873"
   id="svg2"
   inkscape:version="0.91 r13725"
   sodipodi:docname="SASPI 6 LOGO DEFINITIVO.svg"><metadata
     id="metadata14"><rdf:RDF><cc:Work
         rdf:about=""><dc:format>image/svg+xml</dc:format><dc:type
           rdf:resource="http://purl.org/dc/dcmitype/StillImage" /><dc:title></dc:title></cc:Work></rdf:RDF></metadata><sodipodi:namedview
     pagecolor="#ffffff"
     bordercolor="#666666"
     borderopacity="1"
     objecttolerance="10"
     gridtolerance="10"
     guidetolerance="10"
     inkscape:pageopacity="0"
     inkscape:pageshadow="2"
     inkscape:window-width="1600"
     inkscape:window-height="837"
     id="namedview12"
     showgrid="false"
     inkscape:zoom="0.038483579"
     inkscape:cx="4394.9125"
     inkscape:cy="3643.4466"
     inkscape:window-x="-4"
     inkscape:window-y="-4"
     inkscape:window-maximized="1"
     inkscape:current-layer="svg2" /><defs
     id="defs4"><style
       type="text/css"
       id="style6"><![CDATA[
    .fil0 {fill:black}
   ]]></style></defs><g
     id="Layer_x0020_1"
     style="fill:#ffffff"><metadata
       id="CorelCorpID_0Corel-Layer" /><path
       class="fil0"
       d="M1654 4336c-59,84 -127,159 -207,223 -76,62 -161,116 -256,161 -93,44 -197,81 -311,111 -112,30 -232,52 -362,68 -127,15 -266,25 -416,28l0 0 -3 0c-55,0 -99,-45 -99,-100l2 -270c-1,-54 42,-99 97,-101 113,-3 219,-10 319,-23 95,-12 182,-28 261,-50 79,-21 149,-47 212,-79 62,-30 116,-66 163,-107 53,-45 98,-96 135,-153 37,-57 67,-122 90,-193 25,-74 42,-155 53,-243 12,-91 17,-189 17,-296l-1 -454c0,-131 6,-253 18,-365 13,-115 34,-223 63,-322 30,-101 68,-193 118,-276 50,-85 110,-161 183,-227 70,-64 151,-120 246,-168 92,-47 196,-87 314,-119 116,-32 244,-57 385,-74 138,-17 293,-27 465,-31l0 0 3 0c55,0 99,45 99,100l-2 271c0,54 -43,99 -98,100 -124,3 -238,10 -343,22 -102,11 -193,27 -273,48 -81,21 -152,46 -214,77 -60,29 -112,64 -158,103 -49,44 -90,93 -123,148 -34,56 -60,118 -80,187 -21,72 -35,151 -43,236 -9,89 -12,186 -11,291l5 464c1,142 -7,273 -24,394 -17,122 -44,234 -81,337 -38,105 -85,198 -143,282zm2279 219c-82,-63 -159,-133 -228,-208 -78,-83 -148,-174 -209,-272 -60,-96 -112,-198 -154,-305 -41,-104 -72,-214 -94,-327 -21,-112 -32,-226 -32,-341 0,-116 11,-230 32,-341 22,-114 53,-223 94,-328 42,-106 94,-209 154,-305 61,-97 131,-188 209,-272 69,-75 146,-144 228,-207 81,-63 168,-119 259,-168 88,-46 181,-86 278,-118 91,-31 186,-54 283,-70 8,-2 16,-3 25,-3 55,0 100,45 100,100l0 274 0 0c0,47 -34,89 -82,98 -73,14 -144,33 -212,58 -69,25 -136,56 -200,91 -66,37 -128,79 -186,125 -58,46 -112,98 -163,155 -56,62 -106,129 -150,200 -43,70 -80,144 -110,223 -29,77 -52,157 -67,239 -15,80 -22,163 -22,249 0,86 7,169 22,248 15,82 38,162 67,240 30,78 67,153 110,223 44,71 94,138 150,200 51,57 105,108 163,154 58,47 120,88 186,125 64,36 131,67 200,92 66,24 135,43 206,56 49,6 88,48 88,100l0 273 -1 0c0,5 0,10 -1,16 -8,54 -59,91 -113,83 -101,-16 -199,-40 -293,-71 -97,-33 -190,-72 -278,-119 -91,-48 -178,-104 -259,-167zm14005 2318l464 0c10,0 19,-4 26,-11 7,-6 11,-16 11,-26l0 -207c0,-10 -4,-20 -11,-26l0 0c-7,-7 -16,-11 -26,-11l-255 0c-12,0 -23,-1 -35,-2 -11,-1 -22,-3 -32,-6 -10,-2 -20,-5 -30,-9 -10,-4 -19,-8 -28,-13 -9,-5 -18,-10 -26,-17 -8,-6 -16,-12 -24,-19 -8,-8 -15,-16 -22,-24 -7,-9 -13,-18 -20,-28l0 0 0 0 0 0 -1 -1 -24 -36 4 -1c-5,-10 -9,-21 -13,-32 -5,-14 -10,-28 -14,-43 -4,-14 -7,-30 -11,-48 -2,-15 -5,-32 -8,-51 -2,-20 -4,-39 -6,-57 -1,-19 -2,-39 -3,-62 -1,-24 -1,-47 -1,-68l0 -1186c0,-33 -1,-64 -3,-94 -3,-31 -6,-61 -10,-91 -4,-29 -9,-58 -16,-85 -6,-28 -13,-54 -22,-80 -8,-26 -18,-51 -28,-75 -11,-24 -22,-47 -35,-70 -12,-21 -25,-42 -39,-62 -14,-20 -29,-40 -45,-58l-2 -2c0,-1 -1,-1 -2,-3 0,0 -1,0 -2,-2l0 0 0 0 0 0 -1 -1 -2 -2c-10,-11 -19,-21 -29,-30 -10,-10 -20,-19 -30,-28 -10,-9 -22,-18 -34,-28 -12,-9 -24,-17 -36,-25 -11,-8 -24,-16 -37,-24 -14,-8 -27,-15 -39,-21 -2,-1 -5,-2 -7,-3l0 0c-2,-1 -4,-2 -6,-3l-74 -36 75 -32 2 -1c12,-6 24,-12 37,-19 13,-7 25,-14 37,-22 12,-8 24,-17 37,-27 12,-10 25,-20 37,-31 12,-11 24,-23 35,-35 12,-12 24,-26 36,-39l1 -1 0 0 9 -10c14,-17 27,-33 39,-50 14,-20 28,-41 40,-62 13,-23 25,-45 35,-68 10,-22 20,-46 28,-71 9,-25 16,-51 22,-76 7,-25 12,-52 16,-80 4,-27 8,-55 10,-83 2,-28 3,-57 3,-88l0 -1198c0,-22 0,-44 1,-68 1,-23 2,-44 4,-62 1,-19 3,-38 6,-57 2,-19 5,-36 8,-52 3,-16 7,-32 12,-47 4,-16 9,-30 14,-43 4,-12 9,-23 14,-34 6,-11 12,-21 18,-31l1 -2c1,0 1,-1 2,-2 0,-1 1,-2 1,-2l1 -2 1 -1c6,-9 12,-17 19,-25 7,-8 14,-15 21,-22 8,-7 16,-14 24,-20 8,-7 17,-12 26,-17 9,-5 18,-9 27,-13 10,-4 20,-7 30,-9 10,-3 20,-5 31,-6 11,-1 22,-2 33,-2l255 0c10,0 19,-4 26,-11 7,-7 11,-16 11,-26l0 -207c0,-10 -4,-20 -11,-27l0 0c-7,-6 -16,-11 -26,-11l-464 0c-23,0 -44,2 -65,4 -22,2 -43,6 -64,10 -20,5 -40,10 -60,17 -20,7 -39,15 -57,24 -19,9 -37,20 -55,31 -18,12 -36,25 -52,38 -17,14 -34,29 -50,45 -15,16 -31,33 -46,51 -16,19 -30,38 -43,57 -13,19 -25,39 -37,60 -11,21 -22,43 -31,64 -9,21 -18,44 -26,67 -7,23 -14,47 -19,71 -6,24 -11,49 -15,75 -4,26 -6,52 -8,78 -2,26 -3,53 -3,81l0 1141c0,25 -1,51 -2,77 -2,24 -4,48 -8,72 -3,23 -7,46 -11,68 -5,22 -11,44 -17,65 -7,21 -14,42 -22,62 -8,20 -17,39 -26,58 -10,19 -20,37 -31,54 -11,18 -23,35 -36,51 -13,17 -26,32 -39,46 -14,14 -27,28 -42,40 -13,12 -27,23 -41,33 -15,11 -29,20 -44,28 -12,7 -24,13 -36,18 -12,5 -24,9 -37,13 -13,4 -25,8 -38,10l0 0c-13,3 -26,5 -39,6 -10,1 -18,6 -24,12 -6,7 -10,16 -10,25l0 38 0 0 0 251c0,10 4,19 11,26 6,7 15,11 25,11l3 1c28,3 56,9 83,19 27,10 53,23 78,38 27,17 53,38 78,62 25,23 49,50 72,81 12,16 24,34 36,52 11,19 21,37 31,56 9,19 18,39 26,60 8,20 15,42 22,63 6,22 12,44 17,67 4,23 8,46 11,70 4,24 6,48 8,74 1,26 2,52 2,78l0 1128c0,28 1,55 3,81 2,26 4,52 8,78 4,25 9,50 15,75 5,24 12,47 19,71 8,23 17,46 26,67l0 0c9,21 20,42 31,64 12,21 24,41 37,60 13,19 27,38 43,57 30,36 62,68 96,95 34,28 69,51 106,69 38,18 77,32 118,41 41,10 84,14 129,14zm6315 -2578c12,-6 25,-10 37,-14 13,-4 25,-7 38,-10l1 0c12,-3 25,-5 38,-6 10,-1 18,-5 24,-12 6,-7 10,-16 10,-25l0 -38 0 0 0 -251c0,-10 -4,-19 -10,-26 -7,-6 -16,-11 -26,-11l-2 0c-12,-2 -24,-4 -37,-7 -12,-3 -24,-6 -35,-10 -13,-4 -25,-8 -38,-14 -12,-6 -24,-12 -36,-19 -15,-8 -30,-18 -44,-28 -14,-11 -28,-23 -41,-35 -14,-13 -28,-27 -41,-42 -14,-16 -27,-32 -40,-49 -25,-34 -47,-70 -67,-109 -19,-38 -35,-79 -47,-121 -13,-43 -23,-89 -29,-137 -7,-48 -10,-98 -10,-150l0 -1134c0,-28 -1,-55 -3,-81 -1,-26 -4,-52 -8,-78 -4,-26 -9,-51 -14,-75 -6,-24 -13,-48 -20,-71 -8,-23 -16,-46 -26,-67l0 0c-9,-21 -19,-42 -31,-64 -12,-21 -24,-41 -37,-60 -13,-19 -27,-38 -43,-57 -15,-18 -30,-35 -46,-51 -16,-16 -33,-31 -50,-45 -16,-13 -34,-26 -52,-38 -18,-11 -36,-22 -55,-31 -18,-9 -37,-17 -57,-24 -20,-7 -40,-12 -60,-17 -21,-4 -42,-8 -63,-10 -21,-2 -43,-4 -65,-4l-465 0c-10,0 -19,5 -26,11 -7,7 -11,17 -11,27l0 207c0,10 4,19 11,26l0 0c7,7 16,11 26,11l252 0c11,0 23,1 34,2 11,1 22,3 32,5 10,3 20,6 30,10 10,4 19,8 28,13 9,5 18,10 26,16 9,7 17,13 24,20 8,7 15,15 22,23l1 0 0 0 1 -1 19 28 1 1 0 0 0 1 1 0 0 1 23 30 0 0 0 1 -4 3c6,11 11,23 15,35 10,26 18,54 24,86 7,34 12,71 16,111 3,40 5,84 5,132l0 1192c0,66 4,127 12,186 9,58 22,113 39,165 8,25 18,50 28,74 11,24 23,48 35,70 13,23 27,45 42,66 15,20 31,40 48,59l0 0 0 1 0 0 1 0 0 1c10,12 21,23 31,33 10,10 20,20 31,30l0 0c11,9 22,19 35,29 12,9 24,18 36,26 12,8 24,16 36,23 13,7 26,14 39,21 3,1 6,3 10,4l74 35 -76 33 -1 1c-12,5 -25,11 -37,18 -13,7 -25,14 -37,22 -12,8 -25,17 -38,27 -13,10 -25,21 -37,31 -12,11 -24,23 -37,35l0 1c-13,13 -26,26 -37,39 -32,37 -61,77 -86,121 -25,43 -46,90 -62,139 -17,48 -29,100 -37,155 -8,55 -12,112 -12,173l0 1192c0,22 -1,45 -2,69 -1,24 -2,45 -3,64 -2,18 -4,38 -7,57 -2,19 -5,36 -8,52l0 0c-3,17 -7,33 -11,49 -5,15 -9,30 -14,43 -5,12 -10,24 -16,35 -5,12 -12,22 -18,32 -13,19 -28,36 -43,50 -16,15 -33,27 -52,37 -18,10 -37,17 -58,22 -21,4 -43,7 -66,7l-252 0c-10,0 -19,4 -26,11 -7,6 -11,16 -11,26l0 207c0,10 4,20 11,26l0 0c7,7 16,11 26,11l465 0c22,0 44,-1 65,-3 21,-2 42,-6 63,-10 20,-5 40,-11 60,-18 20,-6 39,-14 57,-23 19,-9 37,-20 55,-32 18,-11 36,-24 52,-37 17,-14 34,-29 50,-45 16,-16 31,-33 46,-51 16,-19 30,-38 43,-57 13,-19 25,-39 37,-60 12,-22 22,-43 31,-64l0 0c10,-22 18,-44 26,-67 7,-24 14,-47 20,-71 5,-25 10,-50 14,-75 4,-26 7,-52 8,-78 2,-26 3,-53 3,-81l0 -1134c0,-26 1,-52 3,-77 1,-25 4,-49 7,-72 3,-24 7,-47 12,-68 4,-23 10,-45 16,-66 7,-21 14,-41 22,-62 8,-20 17,-39 26,-58 10,-18 20,-36 31,-54 12,-18 24,-34 36,-51 13,-17 27,-32 40,-46 13,-14 26,-27 41,-40 13,-12 27,-23 41,-33 15,-10 29,-20 44,-28 12,-6 24,-12 36,-17zm-3678 -1040c-15,1 -32,2 -52,4l0 -1c-13,1 -26,-2 -37,-9 -28,-18 -36,-55 -18,-82l185 -284 0 0c10,-16 29,-27 50,-27l17 0 0 0c103,0 202,9 297,27 95,18 186,45 272,81 86,36 167,81 243,135 77,54 149,118 217,190 68,72 127,149 178,230 50,82 93,168 127,259 34,91 59,187 76,287 17,100 25,204 25,313 0,111 -9,218 -28,321 -18,103 -46,201 -83,294 -37,93 -83,181 -138,264 -56,83 -120,162 -193,235l-1 0c0,1 0,1 0,1 -1,1 -2,1 -3,2 -73,73 -151,137 -234,192 -84,55 -172,101 -264,137 -94,37 -192,65 -296,83 -103,19 -210,28 -323,28 -111,0 -217,-9 -318,-27 -102,-18 -199,-46 -291,-82 -92,-36 -180,-82 -262,-136 -82,-54 -160,-117 -232,-190l0 0 0 0 -1 0c-72,-72 -136,-148 -191,-230 -55,-80 -101,-165 -137,-255 -37,-89 -64,-183 -82,-281 -19,-98 -28,-200 -28,-305 0,-92 12,-190 36,-296 24,-104 59,-215 106,-332 47,-119 106,-244 177,-376 70,-131 152,-269 246,-414l0 0 1 -2 0 0c1,0 1,-1 1,-1 6,-9 15,-22 27,-39 11,-17 18,-28 22,-34 4,-5 12,-18 23,-35 2,-3 7,-10 13,-20l1014 -1575c10,-18 29,-31 52,-31l416 0 0 1c11,0 22,3 32,9 28,18 36,55 18,83l-1006 1557 0 0 0 0c-2,5 -4,10 -7,14l-524 806c-4,7 -9,16 -15,27 -6,10 -13,22 -20,37 -7,13 -14,27 -22,44 -8,17 -15,34 -23,50 -16,37 -30,74 -43,112 -12,38 -22,77 -30,118 -8,40 -14,81 -19,124 -4,40 -6,83 -6,129 0,81 7,158 21,232 13,74 34,146 61,214 27,68 61,133 101,194 41,62 88,121 143,177 54,56 112,104 172,146 60,42 123,77 188,105 66,27 134,48 205,62 71,14 145,21 223,21 75,0 147,-6 215,-20 68,-14 134,-34 196,-61 63,-27 122,-60 178,-100 57,-41 111,-88 162,-142 0,-1 1,-2 2,-4 50,-53 93,-110 131,-171 37,-61 68,-125 93,-192 25,-69 44,-141 57,-216 12,-76 19,-155 19,-239 0,-166 -25,-318 -75,-454 -50,-135 -125,-256 -224,-362l0 0 -1 -1c-50,-53 -103,-100 -160,-140 -57,-40 -117,-73 -179,-99 -63,-27 -130,-47 -200,-61 -70,-13 -144,-20 -221,-20 -20,0 -37,1 -51,1zm-347 -331c0,0 0,0 0,0l0 0zm0 0c0,0 0,0 0,0l0 0zm1484 2568l0 0 0 0 0 0 0 0zm-15547 -3843c82,63 159,132 228,207 78,84 148,175 209,272 60,96 112,199 154,305 41,105 72,214 94,328 21,111 32,225 32,341 0,1 0,2 -1,2l1 2 -1 0c1,2 1,5 1,7 0,90 0,177 3,261 2,79 6,156 13,234 7,76 15,145 26,208 12,63 26,122 44,178 18,54 39,103 63,147 23,43 50,82 82,117 30,33 64,63 102,88 38,25 79,45 125,62 43,11 74,50 74,96l0 295 0 0c0,6 -1,13 -2,19 -11,54 -63,90 -118,79 -37,-8 -73,-17 -109,-28 -36,-10 -70,-22 -103,-36 -34,-14 -68,-31 -100,-49 -33,-19 -63,-39 -92,-61 -37,-28 -72,-60 -105,-95 -32,-35 -62,-73 -89,-115 -27,-41 -53,-86 -76,-135 -24,-48 -45,-100 -64,-154 -1,-4 -3,-7 -6,-10 -2,-3 -6,-6 -9,-7 -3,-2 -7,-3 -11,-3 -4,0 -8,0 -12,1 0,1 -2,1 -4,2 -1,1 -3,2 -3,3 -3,1 -2,1 -3,1l0 0 0 1c0,0 -1,0 -2,2l0 0 -1 1 -1 1c-39,51 -81,100 -125,147 -44,46 -91,90 -140,132 -49,42 -101,82 -154,118 -53,37 -108,71 -164,101l0 0 0 0c-46,25 -94,48 -143,69 -48,21 -97,40 -147,57 -48,16 -97,30 -146,42 -46,11 -92,21 -140,28 -8,2 -16,3 -25,3 -55,0 -100,-44 -100,-100l0 -273 0 0c0,-47 34,-89 82,-98 73,-14 144,-34 212,-58 69,-25 136,-56 200,-92 66,-37 128,-78 186,-125 57,-46 112,-97 163,-154 56,-62 106,-129 150,-200 42,-70 79,-145 110,-223 29,-78 52,-158 67,-240 15,-79 22,-162 22,-248l1 0 0 -3c0,-6 0,-13 1,-20 -1,-5 -2,-11 -2,-17l-1 -12 -1 -5c0,-4 0,-8 0,-12l-1 -5 0 0 0 0 0 -1c0,-4 0,-9 0,-13l0 0 0 0 -1 -8 -1 -11 1 0 -1 -1 0 -9 0 0 0 0 0 -3c0,-1 0,-2 -1,-4l0 -3 0 0c0,-1 0,0 0,0l0 0 0 0 0 0 0 -1 0 0c0,-1 0,-2 0,-3 -7,-77 -22,-153 -42,-228 -21,-77 -47,-150 -79,-218 -33,-69 -72,-137 -117,-201 -44,-65 -94,-125 -148,-179 -49,-50 -102,-96 -158,-137 -55,-42 -114,-79 -176,-112 -60,-32 -123,-59 -187,-82 -62,-21 -125,-38 -191,-51 -49,-6 -88,-48 -88,-99l0 -274 0 0c0,-5 1,-10 2,-15 8,-54 59,-92 113,-83 101,16 199,40 293,71 97,32 190,72 278,118 91,49 178,105 259,168zm9687 -1585c21,14 40,30 58,47l0 0c18,18 33,37 47,58 14,20 26,42 35,65 10,24 17,47 22,71 5,25 7,49 7,74 0,25 -2,50 -7,74 -5,24 -12,48 -22,71 -9,23 -21,45 -35,66 -14,21 -30,41 -47,57l0 0c-18,18 -37,33 -58,47 -20,14 -42,26 -65,35 -24,10 -47,17 -71,22 -24,5 -49,7 -74,7 -25,0 -50,-2 -74,-7 -24,-5 -48,-12 -71,-22 -23,-9 -45,-21 -66,-35 -21,-14 -40,-30 -57,-47 -17,-16 -33,-36 -47,-57 -14,-21 -26,-43 -35,-66 -10,-23 -17,-47 -22,-71 -5,-24 -7,-49 -7,-74 0,-25 2,-49 7,-74 5,-24 12,-47 22,-71 9,-23 21,-45 35,-65 12,-19 26,-36 41,-52 2,-2 4,-4 6,-6 17,-17 36,-32 57,-47 21,-14 43,-25 66,-35 23,-10 47,-17 71,-22 24,-5 49,-7 74,-7 25,0 50,2 74,7 24,5 47,12 71,22 23,10 45,21 65,35zm-343 1210l266 0c55,0 100,45 100,100l0 3455c0,55 -45,100 -100,100l-266 0c-55,0 -100,-45 -100,-100l0 -3455c0,-55 45,-100 100,-100zm-1724 375c82,63 158,132 228,207 77,84 147,175 208,272 61,96 113,199 154,305 41,105 73,214 94,328 21,111 32,225 32,341 0,115 -11,229 -32,341 -21,113 -53,223 -94,327 -41,107 -93,209 -154,305 -61,98 -131,189 -208,272 -70,75 -146,145 -228,208 -82,63 -169,119 -260,167 -87,47 -180,86 -277,119 -92,30 -186,53 -284,69 -8,2 -16,3 -24,3 -56,0 -100,-44 -100,-100l0 -273 0 0c0,-47 33,-89 81,-98 73,-14 144,-34 212,-58 70,-25 137,-56 200,-92 67,-37 129,-78 187,-125 57,-46 112,-97 163,-154 56,-62 106,-129 149,-200 43,-70 80,-145 110,-223 30,-78 53,-158 68,-240 14,-79 22,-162 22,-248 0,-86 -8,-169 -22,-249 -15,-82 -38,-162 -68,-239 -30,-79 -67,-153 -110,-223 -43,-71 -93,-138 -149,-200 -51,-57 -106,-109 -163,-155 -58,-46 -120,-88 -187,-125 -63,-35 -130,-66 -200,-91 -66,-24 -134,-43 -205,-57 -50,-6 -88,-48 -88,-99l0 -274 0 0c0,-5 0,-10 1,-15 9,-54 60,-92 114,-83 100,16 198,40 293,71 97,32 190,72 277,118 91,49 178,105 260,168zm-2667 475c61,-96 131,-186 207,-269 70,-75 147,-145 229,-208 81,-62 167,-118 259,-166 87,-46 180,-86 277,-118 91,-31 186,-54 283,-70 8,-2 16,-3 24,-3 56,0 100,45 100,100l0 274 0 0c0,47 -33,89 -81,98 -73,14 -144,33 -212,58 -70,25 -137,56 -200,91 -66,37 -129,79 -186,125 -58,46 -112,98 -164,155 -55,62 -106,129 -149,200 -43,70 -80,144 -110,223 -30,77 -52,157 -68,239 -14,80 -22,163 -22,249 0,86 8,169 22,248 16,82 38,162 68,240 30,78 67,153 110,223 43,71 94,138 149,200 52,57 106,108 164,154 57,47 120,88 186,125 63,36 130,67 200,92 66,24 135,43 205,56 50,6 88,48 88,100l0 273 0 0c0,5 0,11 -1,16 -9,54 -59,91 -114,83 -37,-6 -70,-12 -101,-19 -31,-6 -64,-14 -100,-24 -37,-10 -72,-21 -104,-32 -31,-11 -65,-23 -101,-38 -46,-19 -90,-39 -130,-59 -41,-21 -83,-44 -125,-69 -42,-26 -81,-52 -120,-80 -40,-28 -78,-58 -113,-88 -3,-3 -7,-4 -10,-6 -4,-1 -8,-1 -12,-1 -4,1 -8,2 -11,3 -4,2 -7,5 -9,8 -2,1 -3,3 -3,4 -1,1 -1,2 -2,3 0,0 0,1 -1,2 0,1 0,2 -1,4 0,0 0,1 0,1 0,3 0,5 -1,7l0 2245c0,56 -44,100 -100,100l-402 0c-55,0 -100,-44 -100,-100l0 -3671 0 -4 0 0 0 -2 0 -2 0 0c0,-2 0,-4 0,-6 1,-117 12,-229 33,-337 22,-112 54,-220 96,-325 42,-106 93,-207 153,-302zm-1766 2212c-59,84 -128,159 -207,223 -76,62 -161,116 -256,161 -93,44 -197,81 -311,111 -112,30 -232,52 -362,68 -127,15 -266,25 -416,28l0 0 -3 0c-55,0 -99,-45 -99,-100l2 -270c-1,-54 42,-99 97,-101 113,-3 219,-10 319,-23 95,-12 182,-28 261,-50 79,-21 149,-47 212,-79 62,-30 116,-66 163,-107 53,-45 98,-96 135,-153 37,-57 67,-122 90,-193 25,-74 42,-155 53,-243 12,-91 17,-189 17,-296l-1 -454c0,-131 6,-253 18,-365 13,-115 34,-223 63,-322 29,-101 68,-193 117,-276 51,-85 111,-161 184,-227 70,-64 151,-120 246,-168 92,-47 196,-87 314,-119 116,-32 244,-57 385,-74 138,-17 293,-27 465,-31l0 0 3 0c55,0 99,45 99,100l-2 271c0,54 -43,99 -98,100 -124,3 -238,10 -343,22 -102,11 -193,27 -273,48 -81,21 -152,46 -214,77 -60,29 -112,64 -158,103 -49,44 -90,93 -123,148 -34,56 -60,118 -80,187 -21,72 -35,151 -43,236 -9,89 -12,186 -11,291l5 464c1,142 -7,273 -24,394 -17,122 -44,234 -81,337 -38,105 -85,198 -143,282z"
       id="path10"
       style="fill:#ffffff" /></g></svg>